<?xml version="1.0" standalone="no"?>
<!DOCTYPE svg PUBLIC "-//W3C//DTD SVG 20010904//EN"
 "http://www.w3.org/TR/2001/REC-SVG-20010904/DTD/svg10.dtd">
<svg version="1.0" xmlns="http://www.w3.org/2000/svg"
 width="70.000000pt" height="70.000000pt" viewBox="0 0 70.000000 70.000000"
 preserveAspectRatio="xMidYMid meet">
<metadata>
Created by potrace 1.11, written by Peter Selinger 2001-2013
</metadata>
<g transform="translate(0.000000,70.000000) scale(0.100000,-0.100000)"
fill="#000000" stroke="none">
<path d="M289 600 c-41 -35 -46 -36 -75 -9 -24 23 -47 18 -37 -7 5 -13 1 -15
-23 -10 -32 7 -67 -9 -48 -21 20 -13 10 -49 -24 -89 -19 -22 -28 -40 -22 -42
7 -3 17 1 23 7 28 28 32 9 32 -156 0 -107 3 -170 10 -177 10 -9 211 -13 436
-7 l36 1 -1 238 -1 237 -142 3 c-79 1 -143 5 -143 9 0 4 7 14 16 24 27 30 -1
29 -37 -1z"/>
</g>
</svg>
