<?xml version="1.0" standalone="no"?>
<!DOCTYPE svg PUBLIC "-//W3C//DTD SVG 20010904//EN"
 "http://www.w3.org/TR/2001/REC-SVG-20010904/DTD/svg10.dtd">
<svg version="1.0" xmlns="http://www.w3.org/2000/svg"
 width="260.000000pt" height="260.000000pt" viewBox="0 0 260.000000 260.000000"
 preserveAspectRatio="xMidYMid meet">
<metadata>
Created by potrace 1.11, written by Peter Selinger 2001-2013
</metadata>
<g transform="translate(0.000000,260.000000) scale(0.100000,-0.100000)"
fill="#000000" stroke="none">
<path d="M1493 2494 c-3 -8 -12 -13 -20 -10 -8 3 -11 1 -8 -5 9 -14 -15 -41
-31 -35 -8 3 -13 0 -11 -6 1 -7 -3 -12 -10 -13 -6 0 -15 -4 -20 -9 -5 -5 -3
-6 5 -2 15 9 16 -20 0 -30 -7 -5 -8 -3 -3 7 8 12 6 12 -8 0 -19 -15 -23 -26
-6 -15 7 4 10 1 7 -7 -3 -8 -12 -13 -21 -13 -10 1 -13 -4 -10 -14 4 -10 2 -13
-5 -8 -7 4 -10 -1 -7 -14 2 -11 0 -18 -6 -15 -5 4 -9 -3 -9 -14 0 -11 -5 -23
-12 -27 -7 -5 -8 -3 -3 6 5 8 4 11 -3 6 -6 -4 -9 -13 -6 -21 7 -18 -13 -54
-50 -89 -20 -19 -25 -27 -12 -22 15 5 17 4 8 -7 -7 -8 -8 -18 -4 -22 4 -5 -1
-5 -11 -2 -10 4 -16 3 -12 -2 3 -5 -1 -12 -7 -14 -10 -4 -10 -6 0 -6 6 -1 12
-6 12 -12 0 -5 -4 -7 -10 -4 -5 3 -10 -1 -10 -10 0 -8 -10 -20 -22 -25 -14 -5
-17 -9 -8 -10 9 -1 5 -5 -9 -11 -17 -7 -21 -13 -13 -22 7 -8 6 -18 -4 -31 -8
-11 -14 -15 -14 -10 0 6 6 17 12 25 7 7 4 6 -6 -3 -15 -13 -17 -20 -8 -31 10
-11 8 -17 -5 -28 -17 -13 -17 -13 -3 6 14 19 14 19 -3 6 -9 -8 -15 -16 -13
-19 3 -3 -4 -18 -15 -33 -11 -16 -17 -34 -13 -41 5 -8 2 -9 -10 -5 -9 4 -15 3
-12 -1 2 -4 1 -14 -5 -22 -6 -10 -9 -11 -9 -2 0 6 -5 12 -11 12 -5 0 -8 -4 -5
-9 10 -16 -18 -18 -50 -5 -19 8 -35 9 -40 4 -6 -6 -24 0 -46 15 -20 14 -46 25
-58 25 -11 0 -23 7 -26 15 -4 9 -28 25 -55 36 -27 12 -49 25 -49 30 0 5 -6 9
-12 9 -7 0 -41 18 -76 40 -34 22 -73 42 -86 44 -13 2 -42 14 -64 25 -34 17
-98 38 -157 51 -26 6 -56 -1 -49 -11 4 -7 0 -9 -14 -5 -11 4 -23 2 -27 -4 -3
-5 -18 -10 -33 -10 -15 0 -22 -4 -17 -8 13 -9 18 -35 5 -27 -16 10 -12 -11 5
-25 8 -6 18 -9 23 -6 6 3 15 -1 22 -9 7 -8 19 -15 28 -15 8 0 12 -3 9 -7 -4
-3 -1 -13 6 -21 10 -13 9 -14 -2 -8 -9 6 -12 4 -9 -5 3 -8 24 -21 48 -30 24
-9 52 -29 64 -44 11 -16 15 -26 8 -21 -6 4 -12 5 -12 2 0 -3 14 -13 32 -22 38
-20 88 -67 88 -84 0 -6 5 -8 10 -5 6 3 10 -3 10 -14 0 -12 4 -21 9 -21 5 0 13
-9 16 -20 4 -11 11 -18 16 -15 5 4 9 1 9 -5 0 -14 66 -80 80 -80 6 0 9 -3 9
-7 -3 -21 3 -31 24 -37 29 -8 82 -57 82 -76 0 -8 15 -22 34 -31 18 -8 38 -24
43 -34 8 -14 8 -16 -3 -10 -11 6 -12 5 -1 -6 15 -17 16 -43 0 -33 -8 5 -9 2
-5 -9 5 -13 -2 -21 -26 -32 -18 -9 -23 -13 -13 -10 16 5 17 3 6 -10 -7 -8 -17
-12 -24 -8 -6 4 -5 0 2 -9 10 -13 10 -18 1 -24 -8 -5 -10 -3 -4 7 4 8 -5 0
-21 -17 -16 -16 -23 -23 -16 -14 6 9 12 21 12 26 0 4 -8 -3 -17 -16 -10 -14
-18 -32 -18 -40 0 -8 -8 -14 -18 -14 -15 2 -16 -1 -5 -14 11 -13 10 -15 -5 -9
-11 4 -16 3 -12 -4 4 -6 -3 -13 -14 -16 -18 -5 -19 -8 -9 -21 11 -13 9 -14
-12 -7 -14 4 -22 4 -18 0 4 -5 0 -14 -10 -22 -9 -8 -11 -11 -3 -7 10 5 12 3 7
-5 -5 -7 -15 -10 -23 -7 -11 5 -13 1 -8 -15 5 -14 3 -19 -3 -15 -7 4 -16 -10
-23 -34 -7 -22 -18 -40 -26 -40 -7 0 -12 -3 -11 -7 3 -18 -15 -41 -28 -36 -8
3 -14 2 -13 -3 4 -22 -2 -35 -13 -28 -7 5 -9 0 -6 -14 5 -16 2 -20 -13 -17
-16 3 -17 1 -9 -16 9 -15 7 -21 -7 -26 -10 -3 -26 -13 -36 -21 -14 -12 -15
-17 -5 -24 10 -6 5 -15 -17 -34 -16 -15 -24 -23 -17 -20 6 4 12 5 12 2 0 -8
-46 -56 -51 -53 -2 1 -1 -2 3 -7 4 -5 0 -15 -9 -21 -16 -12 -29 -50 -14 -40 4
2 8 -2 8 -9 0 -9 -7 -12 -16 -9 -10 4 -9 0 4 -10 11 -8 24 -13 29 -10 5 4 6 1
2 -6 -28 -45 91 -48 136 -3 34 35 49 46 71 55 10 4 25 20 35 37 9 16 31 37 48
45 19 9 34 25 38 40 4 16 13 25 26 25 11 0 30 14 42 31 21 27 70 57 106 63 7
1 24 14 36 29 13 15 30 27 39 27 9 0 19 5 22 10 13 22 87 49 116 43 20 -4 35
0 48 11 42 38 159 13 133 -29 -10 -16 -11 -36 -1 -29 5 3 9 1 9 -5 0 -5 7 -17
16 -25 12 -12 12 -16 2 -16 -10 0 -10 -2 1 -9 13 -8 13 -12 0 -27 -11 -15 -12
-16 0 -9 11 6 13 2 9 -19 -3 -14 -2 -26 2 -26 4 0 11 -7 14 -16 4 -10 2 -13
-7 -8 -9 5 -9 4 1 -7 6 -7 12 -20 12 -29 0 -9 9 -25 20 -35 14 -13 17 -22 10
-30 -8 -9 -6 -14 6 -19 13 -5 14 -9 5 -20 -9 -11 -6 -19 16 -36 15 -12 21 -18
13 -14 -10 5 -9 1 3 -14 12 -13 16 -26 11 -34 -14 -22 -13 -36 7 -57 10 -11
15 -22 10 -25 -9 -6 6 -58 23 -85 7 -10 5 -13 -5 -9 -9 4 -14 -2 -14 -17 0
-13 3 -21 7 -19 4 3 7 -4 8 -13 1 -43 5 -63 11 -63 14 0 26 -46 17 -70 -5 -13
-6 -21 -2 -17 4 4 12 0 18 -8 6 -7 22 -17 36 -20 43 -10 80 34 96 114 1 8 7
17 12 20 8 6 12 22 31 127 11 59 4 336 -8 343 -12 8 -16 134 -6 172 4 15 2 30
-3 33 -7 4 -7 17 -2 35 4 16 6 32 2 35 -3 3 0 6 6 6 12 0 12 0 15 133 3 108
18 137 71 140 14 1 28 9 31 17 3 9 17 17 31 18 15 1 32 6 38 11 6 5 27 12 46
16 19 4 46 14 60 23 14 9 30 17 35 18 6 1 25 4 43 7 18 3 38 9 45 14 7 5 21 9
32 9 11 -1 26 5 33 11 7 7 25 15 40 19 15 3 41 11 57 19 17 8 42 17 58 21 15
3 32 15 38 25 5 11 14 17 19 14 6 -3 29 5 53 19 24 14 47 23 50 19 4 -3 7 -1
7 5 0 6 7 9 15 6 8 -4 17 1 21 10 3 9 12 16 20 16 8 0 14 7 14 15 0 8 7 15 15
15 8 0 15 5 15 10 0 6 -5 10 -11 10 -5 0 -8 4 -4 9 6 11 -49 53 -59 44 -3 -3
-6 -1 -6 6 0 7 -5 9 -10 6 -6 -4 -17 -1 -25 5 -11 9 -18 10 -29 1 -9 -8 -21
-8 -39 -2 -15 6 -28 7 -31 3 -3 -5 -32 -8 -66 -7 -44 1 -64 -3 -73 -14 -11
-14 -10 -14 6 -2 15 12 17 12 12 -2 -7 -16 -61 -16 -87 -1 -10 6 -11 5 -1 -8
11 -13 8 -15 -22 -13 -19 0 -37 4 -41 8 -11 11 -26 8 -19 -3 4 -7 -3 -8 -22
-3 -15 4 -45 7 -65 7 -22 0 -34 5 -30 11 3 5 -2 4 -11 -4 -13 -11 -17 -11 -17
-1 0 8 -3 10 -7 7 -3 -4 -13 -1 -21 6 -11 8 -14 8 -9 0 5 -8 -7 -11 -47 -8
-31 2 -60 6 -66 10 -5 3 -10 2 -10 -3 0 -5 -7 -9 -15 -9 -8 0 -15 3 -15 6 0 3
-19 7 -43 9 -29 2 -47 9 -59 25 -10 12 -23 28 -29 35 -6 7 -13 25 -15 40 -3
14 -9 31 -13 37 -4 5 -7 30 -7 54 1 34 6 46 21 52 11 4 16 8 11 8 -5 1 -3 7 3
15 10 11 8 16 -8 21 -14 4 -18 12 -14 28 5 24 12 81 14 110 0 9 3 17 7 17 4 0
8 12 9 28 5 66 12 104 22 116 6 7 8 16 5 19 -3 3 -2 12 2 19 19 30 24 136 8
149 -8 6 -14 17 -14 24 0 17 -36 25 -51 11 -9 -8 -10 -8 -5 2 4 6 5 12 1 12
-3 0 -8 -7 -12 -16z m-363 -607 c0 -2 -10 -12 -21 -23 -22 -19 -22 -19 -8 4
12 19 29 30 29 19z"/>
<path d="M525 989 c-4 -6 -5 -12 -2 -15 2 -3 7 2 10 11 7 17 1 20 -8 4z"/>
<path d="M360 750 c-9 -6 -10 -10 -3 -10 6 0 15 5 18 10 8 12 4 12 -15 0z"/>
</g>
</svg>
